HIERARCHY
ROOT root
{
	OFFSET 0.000000 0.000000 0.000000
	CHANNELS 6 Xposition Yposition Zposition Zrotation Yrotation Xrotation
	JOINT lhip
	{
		OFFSET 0.058581 -0.082280 -0.017664
		CHANNELS 3 Zrotation Yrotation Xrotation
		JOINT lknee
		{
			OFFSET 0.043451 -0.386469 0.008037
			CHANNELS 3 Zrotation Yrotation Xrotation
			JOINT lankle
			{
				OFFSET -0.014790 -0.426874 -0.037428
				CHANNELS 3 Zrotation Yrotation Xrotation
				JOINT ltoe
				{
					OFFSET 0.041054 -0.060286 0.122042
					CHANNELS 3 Zrotation Yrotation Xrotation
					End Site
					{
						OFFSET 0.000000 0.000000 0.000000
					}
				}
			}
		}
	}
	JOINT rhip
	{
		OFFSET -0.060310 -0.090513 -0.013543
		CHANNELS 3 Zrotation Yrotation Xrotation
		JOINT rknee
		{
			OFFSET -0.043257 -0.383688 -0.004843
			CHANNELS 3 Zrotation Yrotation Xrotation
			JOINT rankle
			{
				OFFSET 0.019056 -0.420046 -0.034562
				CHANNELS 3 Zrotation Yrotation Xrotation
				JOINT rtoe
				{
					OFFSET -0.034840 -0.062106 0.130323
					CHANNELS 3 Zrotation Yrotation Xrotation
					End Site
					{
						OFFSET 0.000000 0.000000 0.000000
					}
				}
			}
		}
	}
	JOINT lowerback
	{
		OFFSET 0.004439 0.124404 -0.038385
		CHANNELS 3 Zrotation Yrotation Xrotation
		JOINT upperback
		{
			OFFSET 0.004488 0.137956 0.026820
			CHANNELS 3 Zrotation Yrotation Xrotation
			JOINT chest
			{
				OFFSET -0.002265 0.056032 0.002855
				CHANNELS 3 Zrotation Yrotation Xrotation
				JOINT lowerneck
				{
					OFFSET -0.013390 0.211636 -0.033468
					CHANNELS 3 Zrotation Yrotation Xrotation
					JOINT upperneck
					{
						OFFSET 0.010113 0.088937 0.050410
						CHANNELS 3 Zrotation Yrotation Xrotation
						End Site
						{
							OFFSET 0.000000 0.000000 0.000000
						}
					}
				}
				JOINT lclavicle
				{
					OFFSET 0.071702 0.114000 -0.018898
					CHANNELS 3 Zrotation Yrotation Xrotation
					JOINT lshoulder
					{
						OFFSET 0.122921 0.045205 -0.019046
						CHANNELS 3 Zrotation Yrotation Xrotation
						JOINT lelbow
						{
							OFFSET 0.255332 -0.015649 -0.022946
							CHANNELS 3 Zrotation Yrotation Xrotation
							JOINT lwrist
							{
								OFFSET 0.265709 0.012698 -0.007375
								CHANNELS 3 Zrotation Yrotation Xrotation
								End Site
								{
									OFFSET 0.000000 0.000000 0.000000
								}
							}
						}
					}
				}
				JOINT rclavicle
				{
					OFFSET -0.082954 0.112472 -0.023707
					CHANNELS 3 Zrotation Yrotation Xrotation
					JOINT rshoulder
					{
						OFFSET -0.113228 0.046853 -0.008472
						CHANNELS 3 Zrotation Yrotation Xrotation
						JOINT relbow
						{
							OFFSET -0.260127 -0.014369 -0.031269
							CHANNELS 3 Zrotation Yrotation Xrotation
							JOINT rwrist
							{
								OFFSET -0.269108 0.006794 -0.006027
								CHANNELS 3 Zrotation Yrotation Xrotation
								End Site
								{
									OFFSET 0.000000 0.000000 0.000000
								}
							}
						}
					}
				}
			}
		}
	}
}
MOTION
Frames: 17
Frame Time: 0.033333
-1.403490 0.516327 1.022262 13.789445 9.219257 94.123946 14.195832 1.488357 -15.919004 -3.912681 -14.813934 19.315392 8.485474 8.754084 -27.108614 0.000000 -0.000000 0.000000 -2.943871 -2.267098 -10.068311 3.582522 5.208597 19.650187 7.583887 -7.230043 -8.903297 0.000000 -0.000000 0.000000 -1.953840 -0.620882 5.008321 1.623926 -3.397730 -5.837091 -0.199662 0.663944 -0.291033 3.641327 13.285623 -6.519220 4.009038 8.476529 4.472642 -30.738289 -2.856948 6.159250 -49.268170 -6.946912 5.002096 12.776430 -31.403583 0.651034 14.746087 -16.848316 -13.270748 25.719943 -1.554755 5.399716 61.102980 -8.386760 0.346009 -17.637276 21.574267 -10.601156 5.157811 12.402910 -18.755126 
-1.391102 0.518774 1.023750 13.290575 9.726373 94.699930 14.197106 1.224382 -16.217902 -4.087927 -14.246379 18.867417 9.008046 9.152056 -26.631822 0.000000 -0.000000 0.000000 -2.487104 -1.474401 -12.759464 2.720325 4.632845 23.016750 7.138154 -8.086331 -7.120079 0.000000 -0.000000 0.000000 -2.494414 -0.586430 5.157695 0.859114 -2.650570 -6.234257 -0.432000 0.904793 -0.268891 3.309321 12.093466 -7.149035 5.146527 8.406767 4.032452 -31.151061 -3.377732 5.916954 -48.569230 -7.642695 5.042102 13.474121 -31.365232 -0.505984 14.545323 -16.978700 -12.279793 25.179794 -0.990758 5.996405 61.788589 -9.131123 1.863543 -17.311578 22.173895 -8.255905 9.186473 12.802174 -17.843927 
-1.379343 0.520988 1.025747 12.703645 9.844102 94.877036 13.689625 1.188648 -15.883742 -4.082491 -13.772765 18.044505 9.589717 9.337759 -26.204278 0.000000 -0.000000 0.000000 -2.122740 -0.851204 -15.165178 1.674284 4.057997 26.542901 5.949467 -9.553212 -5.618403 0.000000 -0.000000 0.000000 -3.307424 -0.595547 5.717060 0.173291 -2.088274 -6.739997 -0.549203 1.084437 -0.338427 2.854828 11.159963 -7.222255 6.009207 8.487459 3.336872 -31.323120 -3.706263 5.850180 -47.988061 -7.931561 4.888725 13.707255 -31.457344 -1.578427 15.031834 -16.692386 -11.598012 24.865997 -0.583677 6.344369 62.133982 -9.524855 2.781330 -17.527778 23.442243 -6.979370 12.147989 12.651229 -15.788796 
-1.368591 0.522527 1.026202 12.163518 9.753930 95.053884 13.061620 1.357644 -15.494474 -3.978324 -13.339464 16.945683 9.974831 9.110903 -25.496167 0.000000 -0.000000 0.000000 -1.628927 -0.714662 -17.372119 0.478123 3.333587 29.725985 4.199392 -10.844283 -4.729360 0.000000 -0.000000 0.000000 -3.756570 -0.930450 6.012574 -0.563804 -2.063126 -6.671160 -0.900383 1.554473 -0.460953 1.787188 11.018428 -8.076260 7.362330 8.383954 3.316400 -30.641554 -4.237439 5.622365 -47.913333 -7.354165 4.583411 13.599214 -31.972491 -2.575516 15.470501 -16.388658 -11.300095 24.176866 0.050325 7.140427 63.060685 -8.874149 2.812640 -18.247036 25.251937 -6.670061 15.165200 12.533372 -14.130429 
-1.359181 0.524639 1.027370 11.732036 9.591382 95.182738 12.343651 1.778544 -15.058626 -3.960187 -13.709992 15.808720 10.287585 9.339740 -24.479640 0.000000 -0.000000 0.000000 -0.919039 -0.368898 -18.922547 0.208996 3.319031 31.903800 3.077630 -12.192723 -5.961167 0.000000 -0.000000 0.000000 -3.540689 -1.666354 6.614150 -1.832922 -1.838782 -7.658764 -1.646843 1.548027 -0.083314 1.520242 9.912441 -7.619254 8.077020 9.961889 2.397024 -29.391461 -4.106208 5.600766 -47.705299 -6.774250 4.630348 12.660436 -32.032117 -1.602737 18.015200 -14.983388 -13.055497 22.430791 0.593966 6.379792 65.322419 -8.320001 4.500811 -18.109165 26.045942 -7.663386 11.398036 12.045941 -13.361663 
-1.350638 0.526925 1.027824 11.462724 9.583990 95.370329 11.887777 1.969537 -14.839196 -3.914120 -13.450088 14.886260 10.204213 9.018583 -24.110458 0.000000 -0.000000 0.000000 0.080488 0.281073 -20.477483 0.390185 2.720439 33.646613 2.691110 -11.486198 -7.741130 0.000000 -0.000000 0.000000 -3.732988 -1.827798 6.762726 -1.915931 -2.062042 -6.982203 -1.750537 1.107267 -1.054427 1.089447 10.335551 -7.436980 7.973341 10.118014 2.281335 -29.668772 -4.412434 5.735861 -46.995410 -5.452700 4.338044 12.692076 -31.659390 -2.340647 17.392376 -15.443470 -12.784630 22.897460 1.777652 5.471493 64.551445 -9.392741 5.523987 -19.671617 28.660039 -8.181480 9.977376 12.701874 -14.249159 
-1.343184 0.528179 1.028476 11.006874 9.487796 95.817855 11.472896 2.373209 -14.720582 -3.880127 -12.825504 13.751743 10.211411 8.351154 -23.635072 0.000000 -0.000000 0.000000 1.295848 0.800468 -21.989207 0.934300 2.447353 34.486856 2.617056 -9.654426 -9.276820 0.000000 -0.000000 0.000000 -3.907995 -1.742688 6.349237 -1.847212 -2.201941 -6.584477 -1.944350 1.670129 -1.152278 0.708797 11.882742 -8.685581 8.305342 8.369857 2.636741 -29.712209 -5.250843 5.900492 -46.474150 -4.532471 3.963304 12.430061 -30.728886 -2.755402 16.219477 -16.517329 -10.345507 23.410998 1.693018 8.060010 63.937914 -7.239599 3.598187 -20.602733 32.272625 -8.460077 8.629384 13.294599 -14.431596 
-1.336681 0.528764 1.029738 10.350406 9.337069 95.984248 11.108572 2.793114 -14.212001 -4.020120 -12.525672 12.623418 10.123965 7.966887 -23.142450 0.000000 -0.000000 0.000000 2.706704 1.768326 -22.681343 2.033026 2.623219 34.003949 2.618599 -8.335602 -10.950485 0.000000 -0.000000 0.000000 -3.726964 -1.832448 6.110886 -2.000892 -2.064933 -6.527390 -2.102902 1.861702 -1.473270 0.601973 12.672752 -8.514377 8.129397 8.017894 2.546949 -29.825024 -5.340700 5.864606 -45.961941 -3.282851 3.849230 12.049784 -29.628499 -2.278513 15.868881 -16.919858 -8.150623 23.371024 1.732211 8.201678 63.976503 -6.532934 3.438891 -21.662598 34.717418 -9.272213 6.244380 13.658154 -14.246797 
-1.329662 0.529023 1.031181 9.546412 8.812912 96.221630 10.139928 2.742304 -13.571151 -3.934088 -12.758126 11.256487 10.046183 8.742549 -22.355782 0.000000 -0.000000 0.000000 3.726117 2.585718 -22.958978 3.676135 3.436983 32.322929 3.161402 -7.647477 -12.400617 0.000000 -0.000000 0.000000 -3.175408 -2.169017 5.700555 -2.500845 -1.644222 -7.342326 -2.513487 1.484522 -1.531836 1.264452 12.419994 -6.236128 7.019464 9.635781 1.466105 -29.684166 -3.972837 5.774669 -45.541126 -1.962549 4.330703 11.332849 -28.964306 0.219777 17.387542 -15.809368 -8.912147 22.690350 1.484116 5.809798 64.050499 -7.258060 5.329904 -21.053920 36.541696 -7.929020 1.538733 13.597136 -15.881240 
-1.324918 0.529318 1.032066 8.660387 8.752313 96.233528 10.167881 3.013207 -12.906006 -4.170669 -11.315397 10.333635 10.178230 7.703079 -22.432077 0.000000 -0.000000 0.000000 5.446746 3.755604 -22.527643 4.338744 2.935538 29.804722 2.804629 -6.004782 -13.256421 0.000000 -0.000000 0.000000 -3.164475 -1.767297 5.409914 -1.952664 -1.541571 -6.510864 -2.219593 2.160352 -1.946517 0.819874 13.752406 -8.298935 7.319205 7.847163 2.803500 -29.778030 -4.005538 5.399624 -46.445013 -0.795565 4.018352 12.052185 -28.505718 -0.980787 15.126434 -17.295305 -5.387550 22.995512 1.522801 8.009259 63.810787 -5.503810 4.310948 -23.741424 39.787769 -9.723287 4.084804 14.225242 -16.552000 
-1.319736 0.527826 1.033672 7.845461 8.283851 96.323084 9.487601 3.013902 -11.984333 -4.301286 -11.073550 8.918940 10.384467 8.267617 -21.773636 0.000000 -0.000000 0.000000 6.541504 4.855737 -21.500181 5.590444 3.495508 26.391989 2.854116 -6.995549 -13.604751 0.000000 -0.000000 0.000000 -2.658573 -2.120466 5.309229 -2.114983 -0.751771 -7.955823 -2.506189 2.479461 -1.081561 1.879653 12.945540 -7.877392 6.533447 8.805468 2.507980 -28.872398 -2.150917 5.434869 -47.128498 -0.559596 4.848473 11.453239 -28.337950 1.115355 17.289308 -15.879521 -7.538446 22.237429 0.615245 8.886956 64.341257 -3.589528 5.616293 -23.545632 41.650401 -10.339838 -0.465557 13.820242 -17.734233 
-1.314961 0.526052 1.034481 7.124673 7.587933 96.085669 8.612908 2.892863 -10.749022 -4.333722 -10.586178 7.605665 10.454994 8.145010 -21.515698 0.000000 -0.000000 0.000000 7.355534 5.153610 -19.832670 5.986869 2.884184 22.833252 2.847101 -7.282297 -12.678025 0.000000 -0.000000 0.000000 -2.189777 -2.116359 5.119352 -2.195564 -0.516779 -8.030257 -2.392643 2.456120 -1.260610 2.174207 12.653345 -7.453514 6.262924 9.630428 2.631097 -28.491601 -0.788704 5.417875 -48.023867 0.625040 4.682341 11.549188 -28.626375 1.291095 16.161641 -16.102854 -8.234804 21.484516 0.563752 7.545236 64.926056 -3.567677 6.773470 -23.675698 42.884729 -9.805162 0.934912 14.203151 -18.216749 
-1.311402 0.524475 1.033536 6.647701 7.031528 96.210359 8.127422 2.612873 -10.398171 -4.525435 -9.902390 7.015027 10.416168 8.006604 -21.513978 0.000000 -0.000000 0.000000 8.034780 4.954902 -18.824279 5.841949 1.859257 20.161957 1.709655 -7.610841 -10.775934 0.000000 -0.000000 0.000000 -2.081014 -1.529758 4.366396 -1.343712 -0.417389 -7.641196 -1.813999 2.438846 -1.340732 2.067243 13.718269 -7.632916 5.595473 8.909230 3.443870 -28.590182 0.140112 5.757704 -48.893966 1.676551 4.495144 11.908740 -29.576415 1.524557 14.023115 -16.602277 -9.420905 21.907397 0.145818 7.901480 63.307782 -3.425362 6.483081 -24.037420 45.768259 -7.118848 3.341334 14.503273 -21.060648 
-1.306661 0.521595 1.033005 5.934175 5.795266 95.914600 6.423910 2.850382 -9.565473 -4.595937 -9.936930 6.604604 10.837170 8.141440 -21.420890 0.000000 -0.000000 0.000000 7.966139 3.674347 -16.491451 4.825196 2.159588 16.363887 -0.745730 -10.186977 -8.985429 0.000000 -0.000000 0.000000 -0.931260 -1.552107 4.028089 -1.979748 -0.006402 -8.567963 -2.040513 2.706935 -0.520994 2.067483 12.741442 -6.894004 5.211421 10.902419 3.441992 -27.837822 1.404562 5.921970 -49.403531 2.576317 4.192116 10.862409 -30.246216 3.327660 14.229271 -16.135316 -11.043333 21.160132 0.054707 6.988808 64.313647 -2.990029 6.543307 -22.864378 45.835072 -6.648457 3.081525 14.567915 -19.631869 
-1.300901 0.518909 1.032278 5.116664 4.419708 95.624758 4.576100 2.743345 -8.931484 -4.664375 -9.559677 6.584278 11.209029 8.369236 -21.776480 0.000000 -0.000000 0.000000 6.742004 2.440147 -14.444923 4.089227 2.936237 13.498580 -1.492264 -10.149483 -9.347040 0.000000 -0.000000 0.000000 0.106058 -0.986507 3.595752 -1.690131 0.204520 -8.821925 -2.077823 2.946438 -0.138151 1.724882 13.658597 -6.503469 3.873912 11.501729 4.537430 -27.759511 2.612066 5.918371 -50.125287 3.708069 4.122036 10.260556 -31.099651 4.671697 13.318843 -16.540380 -12.115754 21.768730 -0.033071 7.217821 63.195747 -2.604557 6.983351 -23.223399 46.791227 -6.458025 3.011747 14.630248 -20.245401 
-1.293923 0.517049 1.031711 3.746236 3.011942 95.456217 2.517672 2.389446 -8.507167 -4.449455 -8.304129 6.682741 11.948402 8.234935 -22.032763 0.000000 -0.000000 0.000000 4.615585 1.031469 -14.288290 4.649167 4.123180 13.608933 -2.045595 -8.703489 -9.943818 0.000000 -0.000000 0.000000 1.954993 -0.237620 2.869659 -1.633737 0.763031 -8.509744 -2.286426 3.747524 0.302131 0.211993 14.693945 -7.710561 3.419333 12.308108 7.310182 -27.730245 3.439794 4.632673 -51.597557 4.866031 3.595664 10.334313 -31.035581 4.189118 10.839159 -18.036743 -9.133883 21.902872 -0.080990 8.242624 63.173175 -1.066828 7.030132 -24.620632 45.781865 -9.114910 5.753262 15.229911 -18.167755 
-1.286337 0.515031 1.033449 1.831789 1.866140 95.411670 0.349249 1.930448 -8.627220 -3.951010 -7.583665 7.531434 11.807511 9.383928 -22.099465 0.000000 -0.000000 0.000000 2.950612 0.105020 -15.535573 5.236529 5.927314 15.653330 -1.392211 -7.952559 -10.759920 0.000000 -0.000000 0.000000 4.702947 0.043891 2.495896 -1.424906 2.273903 -9.275284 -2.636833 4.190624 1.208165 -0.063606 16.517371 -6.711656 0.740212 14.425688 8.650432 -27.347440 5.998885 3.183611 -52.863823 5.524546 4.360806 9.429611 -30.943804 5.776624 11.901115 -17.371327 -10.180860 22.762343 -0.856764 7.855528 60.771588 0.694215 7.748602 -20.856854 42.973435 -7.957535 1.007562 14.649977 -18.022906 
